<svg version="1.1" id="Layer_1" xmlns="http://www.w3.org/2000/svg" xmlns:xlink="http://www.w3.org/1999/xlink" x="0px" y="0px"
	 width="100%" viewBox="0 0 1584 396" enable-background="new 0 0 1584 396" xml:space="preserve">
<path fill="#FFFFFF" opacity="1.000000" stroke="none" 
	d="
M1071.000000,397.000000 
	C715.544800,397.000000 360.589600,396.994629 5.634403,397.077606 
	C2.131053,397.078430 0.882696,396.683350 0.887003,392.635406 
	C1.024421,263.485199 1.022410,134.334763 0.889303,5.184531 
	C0.885402,1.399232 1.885655,0.917966 5.314524,0.918522 
	C530.414917,1.003759 1055.515259,1.005867 1580.615723,0.891020 
	C1584.621338,0.890144 1585.083130,2.078514 1585.080566,5.614634 
	C1584.984619,134.598282 1584.978149,263.582031 1585.104370,392.565643 
	C1585.108154,396.464478 1584.065308,397.088745 1580.435425,397.086609 
	C1410.790283,396.987091 1241.145142,397.000000 1071.000000,397.000000 
z"/>
<path fill="#65A9FA" opacity="1.000000" stroke="none" 
	d="
M343.961243,264.946899 
	C343.109863,283.621368 340.036743,301.150696 328.657928,316.157349 
	C317.143646,331.342682 301.310394,339.568115 283.228088,344.005981 
	C271.887024,346.789337 260.350922,348.069794 248.650940,348.052368 
	C210.501099,347.995605 172.350922,347.975464 134.201492,348.112640 
	C130.212769,348.127014 128.806778,347.288544 128.812546,342.954620 
	C128.940186,246.996902 128.932922,151.038940 128.826630,55.081169 
	C128.822266,51.132553 129.852081,50.004333 133.858505,50.019878 
	C172.674225,50.170479 211.497467,49.679050 250.304413,50.281563 
	C271.869965,50.616394 293.094757,53.794823 311.633728,66.450302 
	C323.783081,74.743973 331.185059,86.445129 334.723328,100.338661 
	C339.421570,118.786850 339.529968,137.451462 335.195312,156.113968 
	C331.862823,170.461685 323.587830,181.283539 312.097412,189.991547 
	C310.246887,191.393982 308.413055,192.818451 306.456909,194.320755 
	C309.064606,197.255493 312.724640,198.138718 315.730896,200.053680 
	C333.146027,211.147003 341.121094,227.597855 342.950287,247.557556 
	C343.465271,253.177078 344.349823,258.785889 343.961243,264.946899 
z"/>
<path fill="#65AAFA" opacity="1.000000" stroke="none" 
	d="
M1166.809204,348.034058 
	C1148.837158,348.033569 1131.331787,347.777313 1113.842407,348.190796 
	C1108.666260,348.313171 1106.644531,346.481262 1105.116943,341.915131 
	C1098.207886,321.261963 1091.002686,300.707764 1083.890137,280.122742 
	C1080.793701,271.160889 1077.576050,262.239685 1074.594238,253.240082 
	C1073.504150,249.949631 1071.892578,248.560150 1068.147949,248.615341 
	C1051.985352,248.853592 1035.814941,248.868835 1019.653076,248.613541 
	C1015.469055,248.547455 1014.676819,250.028854 1014.692871,253.796448 
	C1014.818054,283.128052 1014.635254,312.461456 1014.878906,341.791565 
	C1014.921875,346.973724 1013.331543,348.241180 1008.346191,348.147919 
	C992.019226,347.842499 975.681885,347.932526 959.351135,348.106689 
	C955.529480,348.147461 954.166687,347.181244 954.171326,343.099243 
	C954.279785,247.103302 954.269104,151.107193 954.201172,55.111183 
	C954.198730,51.678402 954.772583,50.009254 958.795227,50.029011 
	C999.624390,50.229527 1040.466431,49.688313 1081.279053,50.561069 
	C1101.692871,50.997612 1121.534180,55.791164 1139.004517,67.352287 
	C1157.096436,79.324738 1167.162109,96.769753 1171.682007,117.499626 
	C1175.871338,136.714081 1176.130127,156.105576 1171.964355,175.423553 
	C1166.946289,198.694794 1155.020142,217.509995 1135.326294,231.081009 
	C1132.110352,233.297073 1131.406128,235.208603 1132.791626,238.881516 
	C1145.701538,273.105652 1158.410400,307.405609 1171.249878,341.656403 
	C1173.629150,348.003387 1173.764648,347.970459 1166.809204,348.034058 
z"/>
<path fill="#65A9FA" opacity="1.000000" stroke="none" 
	d="
M1230.839600,234.000000 
	C1230.839478,174.340820 1230.899536,115.181473 1230.728271,56.022793 
	C1230.714233,51.145424 1232.124756,49.975586 1236.848999,50.005066 
	C1269.177002,50.206799 1301.513062,49.724384 1333.833862,50.247494 
	C1355.433716,50.597088 1376.948364,52.299469 1397.637329,59.738251 
	C1420.667358,68.018669 1435.551392,84.301132 1444.894165,106.260216 
	C1452.558594,124.274940 1454.733276,143.417679 1456.211792,162.719681 
	C1457.626831,181.192200 1457.514160,199.695740 1456.735107,218.139679 
	C1455.788330,240.552246 1453.978638,262.964233 1446.059082,284.323853 
	C1438.695801,304.183472 1427.869507,321.389252 1408.958008,332.237946 
	C1397.292358,338.930084 1384.523193,342.583435 1371.339966,344.805084 
	C1358.865723,346.907257 1346.310791,348.091797 1333.631470,348.058746 
	C1301.302490,347.974518 1268.972290,347.912689 1236.644897,348.155426 
	C1231.640503,348.192993 1230.705811,346.643799 1230.731445,341.985992 
	C1230.927734,306.158203 1230.839600,270.328857 1230.839600,234.000000 
z"/>
<path fill="#65A9FA" opacity="1.000000" stroke="none" 
	d="
M403.619873,102.606773 
	C415.159943,75.965485 434.846039,58.871754 462.255524,51.295967 
	C493.830261,42.568928 525.728638,42.512444 557.383789,51.093578 
	C588.691406,59.580517 608.964233,80.078644 620.052124,110.243988 
	C627.221924,129.749878 630.594849,149.897354 632.417664,170.559341 
	C633.724487,185.373215 634.448059,200.168045 633.605225,214.908798 
	C631.835327,245.863571 628.513184,276.565582 613.289673,304.601288 
	C602.039062,325.320618 584.856140,338.438385 562.852722,345.860687 
	C546.446106,351.394989 529.374268,353.479523 512.293457,353.474426 
	C487.913757,353.467133 463.782623,350.725647 441.650818,339.042755 
	C426.647064,331.122620 415.188049,319.644531 407.200043,304.664490 
	C397.524780,286.520386 392.595612,267.055359 389.751617,246.771927 
	C386.567871,224.065247 386.185883,201.322723 387.335144,178.552689 
	C388.502350,155.427109 391.786865,132.580704 400.162170,110.764397 
	C401.175110,108.125923 402.348816,105.549179 403.619873,102.606773 
z"/>
<path fill="#65A9FA" opacity="1.000000" stroke="none" 
	d="
M849.825989,347.605530 
	C846.349792,338.586639 845.239685,329.312775 843.011047,320.304474 
	C841.177185,312.891785 839.666870,305.396271 838.147278,297.910187 
	C837.646973,295.445282 836.922485,294.484619 833.941528,294.495056 
	C801.799133,294.607849 769.655579,294.493164 737.513000,294.326477 
	C734.275696,294.309692 732.695496,295.354980 732.023987,298.600861 
	C729.063782,312.910278 725.776672,327.153259 722.925537,341.483459 
	C721.973511,346.268585 720.268921,348.325500 714.862244,348.186066 
	C698.380859,347.761017 681.880859,347.956085 665.389587,348.091858 
	C661.716614,348.122070 660.975342,347.250946 661.824402,343.504059 
	C670.782166,303.973846 679.505554,264.390625 688.345520,224.833588 
	C695.626160,192.254227 702.953491,159.685242 710.303467,127.121422 
	C715.825134,102.658058 721.479797,78.224434 726.901611,53.739124 
	C727.656372,50.330288 729.699158,50.100361 732.344849,50.102898 
	C746.338379,50.116318 760.331909,50.110489 774.325439,50.110550 
	C795.482300,50.110641 816.639893,50.199009 837.795288,50.021587 
	C841.289124,49.992283 842.824951,51.018734 843.577026,54.415840 
	C849.968994,83.286636 856.489136,112.129036 862.973511,140.979370 
	C868.800293,166.904037 874.642761,192.825195 880.456421,218.752808 
	C888.705261,255.541031 896.923767,292.336090 905.183228,329.121918 
	C906.311401,334.146576 907.607056,339.133545 908.812561,344.140991 
	C909.451782,346.796387 908.770020,348.104065 905.655701,348.076080 
	C887.170227,347.909760 868.683411,347.893951 849.825989,347.605530 
z"/>
<path fill="#FDFEFF" opacity="1.000000" stroke="none" 
	d="
M257.921631,295.025879 
	C251.827454,296.638947 245.959641,296.609619 240.192047,296.714630 
	C225.046127,296.990326 209.890167,296.681854 194.742050,296.888641 
	C190.573486,296.945496 188.872162,296.047302 188.924820,291.414185 
	C189.163269,270.438690 189.131180,249.458023 188.942902,228.481491 
	C188.904480,224.202454 190.454239,223.086426 194.468414,223.131149 
	C209.783951,223.301804 225.106049,223.009201 240.418167,223.294235 
	C246.523575,223.407867 252.747696,223.986359 258.674957,225.383377 
	C270.480164,228.165817 278.408600,235.578751 281.200226,247.579971 
	C283.650513,258.113617 283.252380,268.684143 279.507904,278.920685 
	C275.922913,288.721191 268.058502,293.126740 257.921631,295.025879 
z"/>
<path fill="#FEFEFF" opacity="1.000000" stroke="none" 
	d="
M276.905334,137.034622 
	C276.793884,145.225128 275.957031,152.837326 271.759186,159.543915 
	C266.252991,168.340790 257.573669,172.276688 247.749878,172.599564 
	C229.288483,173.206314 210.798630,172.928711 192.321182,173.086212 
	C189.570755,173.109665 189.001434,171.701080 189.005936,169.337372 
	C189.046478,148.024872 189.061630,126.712181 188.995697,105.399818 
	C188.987823,102.850876 189.807190,101.838173 192.431778,101.855812 
	C211.078644,101.981125 229.748611,101.463852 248.366867,102.229485 
	C265.143188,102.919365 275.699738,114.900597 276.736420,132.572235 
	C276.814392,133.901321 276.834290,135.233841 276.905334,137.034622 
z"/>
<path fill="#FFFFFF" opacity="1.000000" stroke="none" 
	d="
M1014.762329,107.116837 
	C1014.394043,103.491295 1015.119507,101.766930 1018.950745,101.814026 
	C1036.757080,102.032928 1054.578247,101.605438 1072.371948,102.141655 
	C1089.639282,102.662003 1102.595093,110.417702 1109.081421,127.116158 
	C1113.862183,139.423386 1114.108765,152.010132 1111.085693,164.787338 
	C1108.186768,177.038589 1102.100952,186.834717 1090.420288,192.479797 
	C1084.613647,195.285995 1078.402100,196.217285 1072.023560,196.224274 
	C1054.546875,196.243454 1037.068604,196.110733 1019.594604,196.327316 
	C1015.366821,196.379715 1014.682983,194.665649 1014.698303,190.992584 
	C1014.814636,163.196762 1014.762390,135.400253 1014.762329,107.116837 
z"/>
<path fill="#FEFFFF" opacity="1.000000" stroke="none" 
	d="
M1290.952393,206.000000 
	C1290.952026,173.029800 1291.027100,140.559189 1290.859375,108.089859 
	C1290.837646,103.879677 1292.083496,102.685104 1296.212646,102.795204 
	C1313.672485,103.260773 1331.140625,102.446800 1348.607788,103.775185 
	C1372.648560,105.603508 1386.572388,118.403946 1391.234375,142.366486 
	C1396.631348,170.107193 1395.130493,197.991745 1394.129639,225.882065 
	C1393.633545,239.704803 1391.472168,253.272186 1386.012695,266.193695 
	C1379.621338,281.321136 1367.824829,289.520203 1352.336548,292.894440 
	C1333.316528,297.038086 1313.957397,295.661774 1294.703247,295.897858 
	C1290.542358,295.948822 1290.941162,293.143982 1290.942505,290.422943 
	C1290.956299,262.448639 1290.951904,234.474319 1290.952393,206.000000 
z"/>
<path fill="#FEFFFF" opacity="1.000000" stroke="none" 
	d="
M449.127319,211.956848 
	C448.519928,190.635895 449.048370,169.831406 453.147461,149.363495 
	C456.299774,133.623062 460.628113,118.153603 474.502228,107.786682 
	C481.299805,102.707458 488.969269,99.880188 497.373322,98.635674 
	C507.671967,97.110603 517.900513,97.283325 528.006165,99.540482 
	C546.320557,103.631119 557.299927,115.652824 563.021423,132.995560 
	C569.231812,151.820251 571.151855,171.269989 571.216553,190.972824 
	C571.274414,208.604324 571.626709,226.255493 568.922974,243.758713 
	C567.321411,254.126678 564.965027,264.312286 560.571045,273.922272 
	C553.004089,290.471863 539.129639,297.983398 521.950378,299.955811 
	C511.407990,301.166229 500.769226,301.015533 490.270966,298.419678 
	C474.459930,294.510223 463.954742,284.828888 458.169891,269.804626 
	C452.792938,255.839645 451.028625,241.159378 449.834839,226.387848 
	C449.460297,221.753174 449.356079,217.096649 449.127319,211.956848 
z"/>
<path fill="#FEFEFF" opacity="1.000000" stroke="none" 
	d="
M807.988525,241.237839 
	C788.330200,241.238464 769.168701,241.142487 750.009521,241.314651 
	C745.806580,241.352402 744.497253,240.513672 745.485962,235.976608 
	C753.513855,199.140350 761.306580,162.252823 769.181030,125.383087 
	C770.638306,118.560104 772.211487,111.761047 773.592407,104.922928 
	C774.283569,101.500107 775.739319,99.680496 779.640381,100.038315 
	C783.605896,100.402046 787.636230,100.251884 791.627502,100.079010 
	C794.752625,99.943657 796.162109,101.421402 796.760315,104.281586 
	C803.561829,136.799988 810.366394,169.317795 817.233826,201.822311 
	C819.637268,213.198074 822.260925,224.527161 824.694641,235.896698 
	C825.834656,241.222809 825.528809,241.425110 819.981934,241.269806 
	C816.152710,241.162613 812.318298,241.241760 807.988525,241.237839 
z"/>
</svg>